<?xml version='1.0' encoding='iso-8859-1'?>
<svg version="1.1" xmlns="http://www.w3.org/2000/svg" viewBox="0 0 463 463" xmlns:xlink="http://www.w3.org/1999/xlink" enable-background="new 0 0 463 463">
  <g>
    <path d="M455.5,332H339.538l18.663-37.132c1.189-2.366,1.042-5.184-0.386-7.414c-1.429-2.23-3.929-3.537-6.574-3.45L191,289.53   v-15.106l193.098-15.448c3.033-0.243,5.619-2.294,6.546-5.192c0.926-2.898,0.01-6.069-2.32-8.026L191,80.005V59.5   c0-4.142-3.358-7.5-7.5-7.5s-7.5,3.358-7.5,7.5v70.517l-55.435,134.628c-0.881,2.14-0.725,4.567,0.423,6.577   c1.148,2.009,3.16,3.376,5.451,3.704l49.561,7.08v8.042l-56.758,1.957c-2.202,0.076-4.259,1.116-5.625,2.845   s-1.903,3.971-1.469,6.131l6.243,31.02H7.5c-4.142,0-7.5,3.358-7.5,7.5s3.358,7.5,7.5,7.5h448c4.142,0,7.5-3.358,7.5-7.5   S459.642,332,455.5,332z M364.675,245.482L191,259.376V131.471c0-0.022,0-0.045,0-0.067v-31.81L364.675,245.482z M138.106,261.439   L176,169.412v97.44L138.106,261.439z M128.598,306.691l210.522-7.26L322.75,332H133.691L128.598,306.691z"/>
    <path d="m311.5,364h-144c-4.142,0-7.5,3.358-7.5,7.5s3.358,7.5 7.5,7.5h144c4.142,0 7.5-3.358 7.5-7.5s-3.358-7.5-7.5-7.5z"/>
    <path d="m135.5,364h-64c-4.142,0-7.5,3.358-7.5,7.5s3.358,7.5 7.5,7.5h64c4.142,0 7.5-3.358 7.5-7.5s-3.357-7.5-7.5-7.5z"/>
    <path d="m359.5,364h-16c-4.142,0-7.5,3.358-7.5,7.5s3.358,7.5 7.5,7.5h16c4.142,0 7.5-3.358 7.5-7.5s-3.358-7.5-7.5-7.5z"/>
    <path d="m295.5,396h-79.999c-4.142,0-7.5,3.358-7.5,7.5s3.358,7.5 7.5,7.5h79.999c4.142,0 7.5-3.358 7.5-7.5s-3.358-7.5-7.5-7.5z"/>
    <path d="m183.501,396h-16.001c-4.142,0-7.5,3.358-7.5,7.5s3.358,7.5 7.5,7.5h16.001c4.142,0 7.5-3.358 7.5-7.5s-3.358-7.5-7.5-7.5z"/>
  </g>
</svg>
